{"title":"Aligarh Hindi 2016 DesiSCR x264-HDF.mp4","uid":15648366,"size":779904260,"categoryP":"video","categoryS":"movies","magnet":"?xt=urn:btih:d9c21fa623118db5a187a5241426f85c07c2a0db&amp;dn=Aligarh+Hindi+2016+DesiSCR+x264-HDF.mp4&amp;tr=udp%3A%2F%2Ftracker.leechers-paradise.org%3A6969&amp;tr=udp%3A%2F%2Fzer0day.ch%3A1337&amp;tr=udp%3A%2F%2Fopen.demonii.com%3A1337&amp;tr=udp%3A%2F%2Ftracker.coppersurfer.tk%3A6969&amp;tr=udp%3A%2F%2Fexodus.desync.com%3A6969","seeders":0,"leechers":1,"uploader":null,"files":1,"time":1472070647,"description":"http://www.movierulzfull.in/ presents:\r\n\r\nAligarh Hindi 2016 DesiSCR x264-HDF.mp4\r\n\r\nScreens:\r\n \nhttp://extraimago.com/images/2016/08/24/wEPk.png \nhttp://extraimago.com/images/2016/08/24/wEPo.png \nhttp://extraimago.com/images/2016/08/24/wEPt.png \nhttp://extraimago.com/images/2016/08/24/wEPx.png \nhttp://extraimago.com/images/2016/08/24/wEP6.png\r\n\r\nInfo:\r\n\r\nFormat : MPEG-4\r\nFormat profile : Base Media\r\nCodec ID : isom (isom/iso2/avc1/mp41)\r\nFile size : 744 MiB\r\nDuration : 1 h 53 min\r\nOverall bit rate mode : Variable\r\nOverall bit rate : 920 kb/s\r\nWriting application : Lavf57.20.100\r\n\r\nVideo\r\nID : 1\r\nFormat : AVC\r\nFormat/Info : Advanced Video Codec\r\nFormat profile :   \r\nFormat settings, CABAC : Yes\r\nFormat settings, ReFrames : 5 frames\r\nCodec ID : avc1\r\nCodec ID/Info : Advanced Video Coding\r\nDuration : 1 h 53 min\r\nBit rate mode : Variable\r\nBit rate : 784 kb/s\r\nMaximum bit rate : 62.5 Mb/s\r\nWidth : 640 pixels\r\nHeight : 272 pixels\r\nDisplay aspect ratio : 2.35:1\r\nFrame rate mode : Variable\r\nFrame rate : 23.976 (24000/1001) FPS\r\nMinimum frame rate : 23.564 FPS\r\nMaximum frame rate : 24.390 FPS\r\nColor space : YUV\r\nChroma subsampling : 4:2:0\r\nBit depth : 8 bits\r\nScan type : Progressive\r\nBits/(Pixel*Frame) : 0.188\r\nStream size : 634 MiB (85%)\r\nWriting library : x264 core 148 r2638 7599210\r\nEncoding settings : cabac=1 / ref=5 / deblock=1:-1:-1 / analyse=0x3:0x113 / me=umh / subme=8 / psy=1 / psy_rd=1.00:0.15 / mixed_ref=1 / me_range=16 / chroma_me=1 / trellis=1 / 8x8dct=1 / cqm=0 / deadzone=21,11 / fast_pskip=1 / chroma_qp_offset=-3 / threads=6 / lookahead_threads=1 / sliced_threads=0 / nr=500 / decimate=1 / interlaced=0 / bluray_compat=0 / constrained_intra=0 / bframes=3 / b_pyramid=2 / b_adapt=2 / b_bias=1 / direct=3 / weightb=1 / open_gop=0 / weightp=2 / keyint=240 / keyint_min=23 / scenecut=40 / intra_refresh=0 / rc_lookahead=50 / rc=2pass / mbtree=1 / bitrate=784 / ratetol=1.0 / qcomp=0.60 / qpmin=0 / qpmax=69 / qpstep=4 / cplxblur=20.0 / qblur=0.5 / vbv_maxrate=62500 / vbv_bufsize=78125 / nal_hrd=vbr / filler=0 / ip_ratio=1.40 / aq=1:1.00\r\nColor range : Limited\r\nColor primaries : BT.601 PAL\r\nTransfer characteristics : BT.470 System B, BT.470 System G\r\nMatrix coefficients : BT.601\r\n\r\nAudio\r\nID : 2\r\nFormat : AAC\r\nFormat/Info : Advanced Audio Codec\r\nFormat profile : LC\r\nCodec ID : 40\r\nDuration : 1 h 53 min\r\nDuration_LastFrame : -24 ms\r\nBit rate mode : Constant\r\nBit rate : 129 kb/s\r\nChannel(s) : 2 channels\r\nChannel positions : Front: L R\r\nSampling rate : 32.0 kHz\r\nFrame rate : 31.250 FPS (1024 spf)\r\nCompression mode : Lossy\r\nStream size : 104 MiB (14%)\r\nLanguage : new\r\nDefault : Yes\r\nAlternate group : 1 \r\n \nhttp://www.movierulzfull.in/aligarh-full-movie-watch/\r\n \nhttp://tvmoviereviews.drupalgardens.com/content/aligarh-review-0","torrent":{"xt":"urn:btih:d9c21fa623118db5a187a5241426f85c07c2a0db","amp;dn":"Aligarh+Hindi+2016+DesiSCR+x264-HDF.mp4","amp;tr":["udp%3A%2F%2Ftracker.leechers-paradise.org%3A6969","udp%3A%2F%2Fzer0day.ch%3A1337","udp%3A%2F%2Fopen.demonii.com%3A1337","udp%3A%2F%2Ftracker.coppersurfer.tk%3A6969","udp%3A%2F%2Fexodus.desync.com%3A6969"],"infoHash":"d9c21fa623118db5a187a5241426f85c07c2a0db","infoHashBuffer":{"type":"Buffer","data":[217,194,31,166,35,17,141,181,161,135,165,36,20,38,248,92,7,194,160,219]},"announce":[],"urlList":[]}}